:SAMPLES-PER-SECOND 30
:FULLY-SPECIFIED
:DEGREES
1169
root  47.8886 29.1596 10.3616 166.808 72.6276 -147.983
RightUpLeg  -7.25629 0.234062 -5.60222
RightLeg  38.7274 6.7866 5.50541
RightFoot  -0.35016 -1.32409 14.0978
RightToes  5.82063e-011 0 -3.6325e-017
Spine  66.6797 6.04603 -0.910112
Spine1  26.6416 -11.7698 37.8109
HEad  30.7578 -1.19974 107.494
LeftShoulder1  0.672787 1.47955 -24.4135
LeftArm  -73.0963 -37.2915 -1.09287
LeftForeArm  -12.1447 -61.5375 -22.6811
LeftHand  -0.281617 -1.05764 5.21305
RightShoulder  -2.81999 11.2963 -31.3283
RightArm  -77.957 17.2336 -18.0918
RightForeArm  6.05194 76.3584 63.4179
RightHand  -0.798621 4.6741 -9.51934
LeftUpLeg  -4.34473 -6.1552 13.9786
LeftLeg  80.3778 -1.43745 -8.80409
LeftFoot  -29.2043 0.583285 2.59383
LeftToes  1.54581e-011 7.46816e-011 -4.69922e-011
1170
root  48.7468 27.8973 11.3846 167.132 71.0699 -143.627
RightUpLeg  -9.50946 1.66748 -2.21278
RightLeg  48.3459 4.47305 5.07397
RightFoot  6.4932 -1.76777 11.4361
RightToes  5.82063e-011 0 -3.6325e-017
Spine  75.7637 6.6776 1.59765
Spine1  25.3207 -10.0504 40.134
HEad  33.6216 3.79432 109.474
LeftShoulder1  0.0367137 3.38177 -19.9684
LeftArm  -69.9818 -35.6227 -10.2094
LeftForeArm  -7.92335 -65.6376 -27.2475
LeftHand  -0.28161 -1.4492 4.97817
RightShoulder  -2.46069 9.87038 -30.6151
RightArm  -81.3776 17.2999 -17.7895
RightForeArm  14.0513 77.0689 70.4568
RightHand  -0.764191 3.24703 -10.4656
LeftUpLeg  -4.24032 -9.8221 18.1319
LeftLeg  86.7633 -0.547349 -11.4957
LeftFoot  -30.6592 0.25752 0.403732
LeftToes  1.54581e-011 7.46816e-011 -4.69922e-011
1171
root  49.709 26.9017 12.1521 169.709 69.1141 -140.421
RightUpLeg  -12.4985 -0.651969 -0.275745
RightLeg  55.8305 3.5898 5.26487
RightFoot  4.09056 -1.41925 10.5897
RightToes  5.82063e-011 0 -3.6325e-017
Spine  80.7291 5.64953 3.84308
Spine1  25.7428 -9.5113 40.467
HEad  37.7101 7.40856 114.344
LeftShoulder1  -0.342695 5.11347 -13.2792
LeftArm  -69.2299 -33.3402 -18.1438
LeftForeArm  -5.2065 -68.2707 -31.3499
LeftHand  -0.324166 -0.189842 6.79389
RightShoulder  -2.14863 8.30095 -30.4043
RightArm  -84.7735 17.7407 -16.5708
RightForeArm  20.8986 77.4486 75.7679
RightHand  -0.691602 2.93655 -9.90254
LeftUpLeg  -7.59963 -11.207 22.4732
LeftLeg  92.4378 0.587168 -11.2855
LeftFoot  -31.0295 0.0561369 -0.748084
LeftToes  1.54581e-011 7.46816e-011 -4.69922e-011
1172
root  50.596 26.2555 12.7831 167.652 65.1745 -140.072
RightUpLeg  -12.0207 -5.42409 -0.0080065
RightLeg  61.5241 2.98791 5.45194
RightFoot  0.834078 -0.881097 8.36231
RightToes  5.82063e-011 0 -3.6325e-017
Spine  85.348 2.21941 6.06501
Spine1  27.2943 -11.0872 39.4788
HEad  45.1777 8.54906 124.525
LeftShoulder1  -0.648923 7.67223 -9.09849
LeftArm  -68.9339 -33.686 -23.992
LeftForeArm  -1.21562 -70.3063 -35.4787
LeftHand  -0.337742 -0.027822 7.29693
RightShoulder  -1.67155 6.42537 -28.8018
RightArm  -88.7552 23.2027 -12.5976
RightForeArm  31.0893 77.8078 83.275
RightHand  -0.63301 1.30233 -11.0808
LeftUpLeg  -8.17496 -13.5551 25.0121
LeftLeg  95.3649 0.836628 -8.56533
LeftFoot  -32.7985 -0.16851 -1.94403
LeftToes  1.54581e-011 7.46816e-011 -4.69922e-011
1173
root  51.329 26.0762 12.9492 174.371 62.5782 -134.121
RightUpLeg  -13.3547 -10.208 2.33905
RightLeg  63.7723 3.16826 6.47055
RightFoot  -1.90179 -0.635568 7.4714
RightToes  5.82063e-011 0 -3.6325e-017
Spine  85.521 -3.29958 9.12894
Spine1  32.0538 -11.5893 34.0922
HEad  51.5509 10.6996 130.766
LeftShoulder1  -0.732566 9.95035 -3.44999
LeftArm  -70.5601 -33.6401 -29.2073
LeftForeArm  5.81149 -72.3301 -40.0973
LeftHand  -0.355961 -0.268559 7.38592
RightShoulder  -1.14465 4.34916 -26.4474
RightArm  -93.3447 29.2769 -9.78549
RightForeArm  38.6441 77.9583 88.0541
RightHand  -0.684777 1.73146 -11.3249
LeftUpLeg  -10.3937 -15.3918 29.3728
LeftLeg  96.5082 0.705001 -6.52824
LeftFoot  -35.6547 -0.466064 -3.12585
LeftToes  1.54581e-011 7.46816e-011 -4.69922e-011
